<svg xmlns="http://www.w3.org/2000/svg" xmlns:xlink="http://www.w3.org/1999/xlink" viewBox="0 0 492 492"><defs><style>.cls-1{fill:url(#radial-gradient);}.cls-2{fill:#006492;}.cls-3{fill:#e41134;}</style><radialGradient id="radial-gradient" cx="246" cy="246" r="246" gradientUnits="userSpaceOnUse"><stop offset="0" stop-color="#f2f2f2"/><stop offset="0.35" stop-color="#e9e9e9"/><stop offset="0.93" stop-color="#cfcfcf"/><stop offset="1" stop-color="#ccc"/></radialGradient></defs><g id="Layer_2" data-name="Layer 2"><g id="Layer_1-2" data-name="Layer 1"><circle class="cls-1" cx="246" cy="246" r="246"/><path class="cls-2" d="M177.62,188.62,72.49,293.75a16.78,16.78,0,0,0,0,23.74l93.64,93.64a16.8,16.8,0,0,0,23.74,0L295,306ZM136,334.5A28.5,28.5,0,1,1,164.5,306,28.5,28.5,0,0,1,136,334.5Zm84,0A28.5,28.5,0,1,1,248.5,306,28.5,28.5,0,0,1,220,334.5Z"/><path class="cls-3" d="M407.63,169.63,314,76a16.78,16.78,0,0,0-23.74,0L184.71,181.54,302.09,298.92,407.63,193.37A16.8,16.8,0,0,0,407.63,169.63ZM302,209.5A28.5,28.5,0,1,1,330.5,181,28.5,28.5,0,0,1,302,209.5Z"/></g></g></svg>