<svg xmlns="http://www.w3.org/2000/svg" xmlns:xlink="http://www.w3.org/1999/xlink" viewBox="0 0 492 492"><defs><style>.cls-1{fill:url(#radial-gradient);}.cls-2{fill:#f9f9f9;}</style><radialGradient id="radial-gradient" cx="246" cy="246" r="246" gradientUnits="userSpaceOnUse"><stop offset="0" stop-color="#29abe2"/><stop offset="0.28" stop-color="#27a8e2"/><stop offset="0.53" stop-color="#219de1"/><stop offset="0.76" stop-color="#178bdf"/><stop offset="0.98" stop-color="#0872dd"/><stop offset="1" stop-color="#0770dd"/></radialGradient></defs><g id="Layer_2" data-name="Layer 2"><g id="Layer_1-2" data-name="Layer 1"><path class="cls-1" d="M492,246c0,124.65-92.71,227.65-212.94,243.79a248.35,248.35,0,0,1-75.19-1.39C88.08,468.42,0,367.5,0,246,0,110.14,110.14,0,246,0S492,110.14,492,246Z"/><path class="cls-2" d="M279.06,218.41v50.81h61q-6.11,31.48-12.19,63H279.06V489.79a248.35,248.35,0,0,1-75.19-1.39V332.21H149v-65h54.87V208.25a82.49,82.49,0,0,1,67.06-75.19L342.05,129v65l-38.61,2a24.3,24.3,0,0,0-24.38,22.35Z"/></g></g></svg>