<svg xmlns="http://www.w3.org/2000/svg" xmlns:xlink="http://www.w3.org/1999/xlink" viewBox="0 0 492 492"><defs><style>.cls-1{fill:url(#radial-gradient);}.cls-2{fill:#0067a0;}.cls-3{fill:#247c00;}.cls-4{fill:#b59f00;}.cls-5{fill:red;}</style><radialGradient id="radial-gradient" cx="246" cy="246" r="246" gradientUnits="userSpaceOnUse"><stop offset="0" stop-color="#f2f2f2"/><stop offset="0.19" stop-color="#e9e9e9"/><stop offset="0.49" stop-color="#cfcfcf"/><stop offset="0.88" stop-color="#a6a6a6"/><stop offset="0.99" stop-color="#999"/></radialGradient></defs><g id="Layer_2" data-name="Layer 2"><g id="Layer_1-2" data-name="Layer 1"><circle class="cls-1" cx="246" cy="246" r="246"/><path class="cls-2" d="M360.26,371.28l-53.11-40.95c17.87-11.66,28.74-29,34-50.1H248.87V215.92H341c0-.12-.06-.23-.1-.35h66.6c.14,1.18.26,2.38.36,3.57C413.52,282,398.37,336.13,360.26,371.28Z"/><path class="cls-3" d="M360.26,371.28c-24.22,22.35-57.71,37-101,41.48C193.1,419.54,131.09,378,101.41,319.82l54.82-42.64c13.07,40.93,50.93,71.49,95.5,69.13,23.19-1.23,41.43-6.86,55.42-16Z"/><path class="cls-4" d="M151.35,245.93a102.6,102.6,0,0,0,4.88,31.25l-54.82,42.64a163.79,163.79,0,0,1-18.29-74.25,166.84,166.84,0,0,1,17.43-74.5l55.74,43.66A100.55,100.55,0,0,0,151.35,245.93Z"/><path class="cls-5" d="M362.48,122.06l-49.31,47c-15.87-14.68-36.93-23.53-61.44-23.53a100.42,100.42,0,0,0-95.44,69.18l-55.74-43.66A167.56,167.56,0,0,1,250.66,78C295.27,78,334.36,94.59,362.48,122.06Z"/></g></g></svg>