<svg xmlns="http://www.w3.org/2000/svg" xmlns:xlink="http://www.w3.org/1999/xlink" viewBox="0 0 492 493.9"><defs><style>.cls-1{fill:url(#radial-gradient);}.cls-2{fill:#fff;}</style><radialGradient id="radial-gradient" cx="246" cy="247.25" r="246" gradientUnits="userSpaceOnUse"><stop offset="0" stop-color="#29abe2"/><stop offset="0.28" stop-color="#27a8e2"/><stop offset="0.53" stop-color="#219de1"/><stop offset="0.76" stop-color="#178bdf"/><stop offset="0.98" stop-color="#0872dd"/><stop offset="1" stop-color="#0770dd"/></radialGradient></defs><g id="Layer_2" data-name="Layer 2"><g id="Layer_1-2" data-name="Layer 1"><circle class="cls-1" cx="246" cy="247.25" r="246"/><path class="cls-2" d="M267.5,178q-31.49,87-62.93,174-23.73.36-47.49.69a6.84,6.84,0,0,1-6.51-9.21Q183,255.75,215.4,168H178.75Q145,260,111.29,352.05H62.67a3.28,3.28,0,0,1-3.09-4.39L181.6,9.78a244,244,0,0,1,59-9.78L191.25,133.85l46.42.85A32.33,32.33,0,0,1,267.5,178Z"/><path class="cls-2" d="M416.69,136.12l-91.74-1a9.94,9.94,0,0,0-9.48,6.63L193.29,487.11a246.11,246.11,0,0,0,52.29,6.79l47.27-139,66.29,1.2a36,36,0,0,0,34.3-23.22l56.22-148.43A35.69,35.69,0,0,0,416.69,136.12Zm-72.2,185.45-36.65-1.66L361.14,170h36.65Q371.14,245.78,344.49,321.57Z"/></g></g></svg>