<svg xmlns="http://www.w3.org/2000/svg" xmlns:xlink="http://www.w3.org/1999/xlink" viewBox="0 0 492 492"><defs><style>.cls-1{fill:url(#linear-gradient);}.cls-2{fill:#fff;}</style><linearGradient id="linear-gradient" x1="72.05" y1="419.95" x2="419.95" y2="72.05" gradientUnits="userSpaceOnUse"><stop offset="0" stop-color="#e04b6f"/><stop offset="0.1" stop-color="#e32750"/><stop offset="0.19" stop-color="#e60030"/><stop offset="0.63" stop-color="#d7005b"/><stop offset="0.81" stop-color="#d1006d"/><stop offset="0.87" stop-color="#cb217e"/><stop offset="0.96" stop-color="#c44590"/><stop offset="1" stop-color="#c15297"/></linearGradient></defs><g id="Layer_2" data-name="Layer 2"><g id="Layer_1-2" data-name="Layer 1"><circle class="cls-1" cx="246" cy="246" r="246"/><path class="cls-2" d="M299.06,107H191.94A83.93,83.93,0,0,0,108,190.94V298.06A83.93,83.93,0,0,0,191.94,382H299.06A83.93,83.93,0,0,0,383,298.06V190.94A83.93,83.93,0,0,0,299.06,107ZM357.4,303.88a52.53,52.53,0,0,1-52.52,52.52H186.12a52.53,52.53,0,0,1-52.52-52.52V185.12a52.53,52.53,0,0,1,52.52-52.52H304.88a52.53,52.53,0,0,1,52.52,52.52Z"/><path class="cls-2" d="M245.5,174.33a70.17,70.17,0,1,0,70.17,70.17A70.17,70.17,0,0,0,245.5,174.33Zm0,115.69A45.52,45.52,0,1,1,291,244.5,45.53,45.53,0,0,1,245.5,290Z"/><circle class="cls-2" cx="319.47" cy="170.53" r="15.17"/></g></g></svg>