<svg xmlns="http://www.w3.org/2000/svg" xmlns:xlink="http://www.w3.org/1999/xlink" viewBox="0 0 492 492"><defs><style>.cls-1{fill:url(#radial-gradient);}.cls-2{fill:#fff;}</style><radialGradient id="radial-gradient" cx="246" cy="246" r="246" gradientUnits="userSpaceOnUse"><stop offset="0" stop-color="#062f62"/><stop offset="0.43" stop-color="#063064"/><stop offset="0.61" stop-color="#07356b"/><stop offset="0.73" stop-color="#093e77"/><stop offset="0.84" stop-color="#0c4989"/><stop offset="0.93" stop-color="#0f599f"/><stop offset="1" stop-color="#1369b7"/></radialGradient></defs><g id="Layer_2" data-name="Layer 2"><g id="Layer_1-2" data-name="Layer 1"><circle class="cls-1" cx="246" cy="246" r="246"/><path class="cls-2" d="M244,62.13,75,359.87,221.86,200.94Q232.93,131.53,244,62.13Z"/><path class="cls-2" d="M248,62.13,417,359.87,270.14,200.94Q259.07,131.53,248,62.13Z"/><path class="cls-2" d="M169.55,269.34,89.08,359.87h60.36l48.28-90.53Z"/><path class="cls-2" d="M207.78,269.34l-12.07,30.18H211.8l-18.11,60.35H246V299.52h16.09l-4-30.18Z"/><path class="cls-2" d="M322.45,269.34H278.13a7.86,7.86,0,0,0-7.63,9.72q9,36.57,17.89,73.15a10,10,0,0,0,9.75,7.66H402.92l-28.17-34.2h-45.3a11.31,11.31,0,0,1-10.13-6.26l-9-17.94a2.74,2.74,0,0,1,2.45-4h35.8Z"/></g></g></svg>