<svg xmlns="http://www.w3.org/2000/svg" xmlns:xlink="http://www.w3.org/1999/xlink" viewBox="0 0 492 492"><defs><style>.cls-1{fill:url(#radial-gradient);}.cls-2{fill:#fff;}</style><radialGradient id="radial-gradient" cx="246" cy="246" r="246" gradientUnits="userSpaceOnUse"><stop offset="0" stop-color="#ff7d7d"/><stop offset="0.16" stop-color="#ff7878"/><stop offset="0.35" stop-color="#fd6b6b"/><stop offset="0.54" stop-color="#fb5555"/><stop offset="0.73" stop-color="#f83636"/><stop offset="0.93" stop-color="#f30e0e"/><stop offset="0.99" stop-color="#f20000"/></radialGradient></defs><g id="Layer_2" data-name="Layer 2"><g id="Layer_1-2" data-name="Layer 1"><circle class="cls-1" cx="246" cy="246" r="246"/><path class="cls-2" d="M183.34,168.14a24.07,24.07,0,0,1,8.47.63c10.9,2.8,18.3,12.95,18.3,24.2v77.59A53.71,53.71,0,0,1,197,306.12c-.37.41-.75.83-1.14,1.24-17.87,19.1-42.28,18.81-47.3,18.75-2,0-39.07-.9-47.3-22.32-3.59-9.34-.27-18.9,0-19.63a27.8,27.8,0,0,1,3.59-6.8,11.93,11.93,0,0,1,17.52-1.9c9.73,8.45,21.12,10.93,28.87,6.92a16.25,16.25,0,0,0,3.51-2.5,17.76,17.76,0,0,0,5.51-12.66l1.56-75.07A24.59,24.59,0,0,1,176.32,170,24.07,24.07,0,0,1,183.34,168.14Z"/><rect class="cls-2" x="222.61" y="203.84" width="48.2" height="117.81" rx="24.1"/><circle class="cls-2" cx="245.81" cy="171.7" r="23.21"/><path class="cls-2" d="M344.88,200.26a63.37,63.37,0,1,0,63.37,63.37A63.37,63.37,0,0,0,344.88,200.26Zm-1.78,87.47a24.1,24.1,0,1,1,24.09-24.1A24.09,24.09,0,0,1,343.1,287.73Z"/></g></g></svg>