<svg xmlns="http://www.w3.org/2000/svg" xmlns:xlink="http://www.w3.org/1999/xlink" viewBox="0 0 492 492"><defs><style>.cls-1{fill:url(#radial-gradient);}.cls-2{fill:#fff;}</style><radialGradient id="radial-gradient" cx="246" cy="246" r="246" gradientUnits="userSpaceOnUse"><stop offset="0" stop-color="#ff5a5a"/><stop offset="0.26" stop-color="#fd494c"/><stop offset="0.76" stop-color="#f81b27"/><stop offset="1" stop-color="#f60414"/></radialGradient></defs><g id="Layer_2" data-name="Layer 2"><g id="Layer_1-2" data-name="Layer 1"><circle class="cls-1" cx="246" cy="246" r="246"/><path class="cls-2" d="M125.15,256.11c13.72,26.19,71.89,7,106-23.69C256.08,210,301,195.84,312.19,203.75c33.66,23.69,3.74,73.72-32.42,112.22-31,33-75,51-82.3,42.39-9.11-10.85,62.51-50.47,33.67-71.07-17.46-12.47-38.84,1.62-54.86,24.93-11.77,17.12-17.07,45.26-5,57.36,21.57,21.61,100.53-5.95,147.13-57.36,32.44-35.78,73.5-109.09,42.4-152.12-36.58-50.59-112.22-57.35-194.52,5C131.57,191.4,107.28,222,125.15,256.11Z"/></g></g></svg>