<svg xmlns="http://www.w3.org/2000/svg" xmlns:xlink="http://www.w3.org/1999/xlink" viewBox="0 0 492 492"><defs><style>.cls-1{fill:url(#radial-gradient);}.cls-2{fill:#f19d1e;}</style><radialGradient id="radial-gradient" cx="246" cy="246" r="246" gradientUnits="userSpaceOnUse"><stop offset="0" stop-color="#232f3f"/><stop offset="0.48" stop-color="#243141"/><stop offset="0.69" stop-color="#283648"/><stop offset="0.84" stop-color="#2f4055"/><stop offset="0.98" stop-color="#394f67"/><stop offset="1" stop-color="#3b526b"/></radialGradient></defs><g id="Layer_2" data-name="Layer 2"><g id="Layer_1-2" data-name="Layer 1"><circle class="cls-1" cx="246" cy="246" r="246"/><path class="cls-2" d="M78.23,235.58c6.6,3.06,13.11,6,19.62,8.9,3.29,1.38,6.5,2.86,9.8,4.15,1.64.66,3.26,1.36,4.88,2l4.93,1.9c13.11,5.09,26.29,9.58,39.58,13.31l5,1.38c1.65.46,3.3,1,5,1.32L177,271c6.73,1.37,13.39,2.92,20.14,4,6.7,1.29,13.49,2,20.22,3,3.38.36,6.78.62,10.16.94l5.07.49,5.1.23,10.18.53,10.19.11c3.4.14,6.8-.11,10.2-.15l5.1-.1,5.09-.3a374,374,0,0,0,40.73-4.38q20.34-3.27,40.57-8.65c3.36-.92,6.76-1.76,10.11-2.78l5.07-1.44c1.67-.53,3.36-1,5.05-1.54,6.74-2.08,13.49-4.27,20.33-6.51h.05A7.32,7.32,0,0,1,407.27,267a180.4,180.4,0,0,1-18.46,13c-6.38,4.05-13.05,7.59-19.82,11a253.61,253.61,0,0,1-42.57,16.32,256.41,256.41,0,0,1-45.09,8.52c-1.91.2-3.82.42-5.73.57l-5.75.33-5.76.29c-1.91.13-3.83.13-5.75.14l-11.53,0-11.5-.67-5.75-.39-5.72-.67c-3.81-.5-7.63-.9-11.42-1.49-7.55-1.4-15.13-2.64-22.54-4.65-3.71-.93-7.44-1.79-11.08-3s-7.32-2.24-10.94-3.43l-10.74-4c-1.8-.65-3.54-1.42-5.3-2.16l-5.24-2.27a257.49,257.49,0,0,1-39.69-22.05,207.36,207.36,0,0,1-34.39-29,5,5,0,0,1,5.69-7.88Z"/><path class="cls-2" d="M447.47,226.33c3.82,5.1-.33,31.93-3.53,38.85-7.5,16.2-20.45,28.09-23,26.49-1.77-1.14,2.49-8.69,7.07-28.25,4.46-19.08,2.72-20.06,1.76-21.19-3.46-4.08-9.65-4-31.78-3.54-15.36.32-15.89,1.77-17.66,0-3.95-3.94,17.49-14,38.85-15.89C429.55,221.91,442.17,219.27,447.47,226.33Z"/></g></g></svg>