<svg xmlns="http://www.w3.org/2000/svg" xmlns:xlink="http://www.w3.org/1999/xlink" viewBox="0 0 492 492"><defs><style>.cls-1{fill:url(#radial-gradient);}.cls-2,.cls-3,.cls-4{fill:#fff;}.cls-3,.cls-4{stroke-miterlimit:10;}.cls-3{stroke:url(#radial-gradient-2);}.cls-4{stroke:#fff;stroke-width:2px;}</style><radialGradient id="radial-gradient" cx="246" cy="246" r="246" gradientUnits="userSpaceOnUse"><stop offset="0" stop-color="#d3ef6f"/><stop offset="0.1" stop-color="#c6e756"/><stop offset="0.26" stop-color="#b6dd37"/><stop offset="0.42" stop-color="#a9d61f"/><stop offset="0.59" stop-color="#a0d00e"/><stop offset="0.78" stop-color="#9bcd03"/><stop offset="1" stop-color="#9c0"/></radialGradient><radialGradient id="radial-gradient-2" cx="254.01" cy="178.81" r="57.45" gradientTransform="translate(0 -132.03) scale(1 1.74)" gradientUnits="userSpaceOnUse"><stop offset="0" stop-color="#f2f2f2"/><stop offset="0.19" stop-color="#e9e9e9"/><stop offset="0.49" stop-color="#cfcfcf"/><stop offset="0.88" stop-color="#a6a6a6"/><stop offset="0.99" stop-color="#999"/></radialGradient></defs><g id="Layer_2" data-name="Layer 2"><g id="Layer_1-2" data-name="Layer 1"><circle class="cls-1" cx="246" cy="246" r="246"/><path class="cls-2" d="M172.12,187.73H337.88a.41.41,0,0,1,.41.41v133.7a12.64,12.64,0,0,1-12.64,12.64H184.83a13.13,13.13,0,0,1-13.13-13.13V188.15A.41.41,0,0,1,172.12,187.73Z"/><rect class="cls-2" x="128.08" y="189.72" width="35.7" height="109.07" rx="8"/><rect class="cls-2" x="348.21" y="187.73" width="33.71" height="109.07" rx="8"/><rect class="cls-2" x="205.42" y="316.64" width="33.71" height="75.36" rx="8.5"/><rect class="cls-2" x="270.87" y="316.64" width="33.71" height="75.36" rx="8.5"/><path class="cls-2" d="M335.32,176.83q0,1-.06,2H172.76q-.06-1-.06-2c0-35.7,36.41-65.45,81.31-65.45S335.32,141.13,335.32,176.83Z"/><line class="cls-3" x1="335.26" y1="178.81" x2="172.76" y2="178.81"/><line class="cls-4" x1="202.45" y1="97.5" x2="226.24" y2="129.23"/><line class="cls-4" x1="307.55" y1="97.5" x2="285.74" y2="125.26"/><circle cx="218.5" cy="153.5" r="7.5"/><circle cx="290.5" cy="155.5" r="7.5"/></g></g></svg>