<svg xmlns="http://www.w3.org/2000/svg" xmlns:xlink="http://www.w3.org/1999/xlink" viewBox="0 0 492 492"><defs><style>.cls-1{fill:url(#radial-gradient);}.cls-2{fill:#fff;}</style><radialGradient id="radial-gradient" cx="246" cy="246" r="246" gradientUnits="userSpaceOnUse"><stop offset="0" stop-color="#1a1a1a"/><stop offset="0.45" stop-color="#171717"/><stop offset="0.75" stop-color="#0e0e0e"/><stop offset="1"/></radialGradient></defs><g id="Layer_2" data-name="Layer 2"><g id="Layer_1-2" data-name="Layer 1"><circle class="cls-1" cx="246" cy="246" r="246"/><path class="cls-2" d="M242.12,144.57a16,16,0,0,0,13.56-.77c11.28-6.1,35-15.78,62.56-8.12,22.9,6.35,36.46,21.29,41.5,27.5a64.06,64.06,0,0,0,6,114,116.43,116.43,0,0,1-21.5,49.5c-9.49,12.53-21.85,28.86-41,32-19.84,3.24-25.33-11.22-51-12-24.94-.76-30.17,12.57-48,12-32.52-1.05-59.86-46.81-70-80-10.72-35.11-17.84-107.37,28-134C191.45,127.7,226.55,138.35,242.12,144.57Z"/><path class="cls-2" d="M238.37,131.59c-.57-3.84-3.65-27.34,13-48,17.33-21.51,42.29-22.86,46-23,.73,5.62,2.41,24-9,42C271.78,128.69,241.83,131.34,238.37,131.59Z"/></g></g></svg>