<svg xmlns="http://www.w3.org/2000/svg" xmlns:xlink="http://www.w3.org/1999/xlink" viewBox="0 0 492 492"><defs><style>.cls-1{fill:url(#radial-gradient);}.cls-2{fill:#0960ad;}</style><radialGradient id="radial-gradient" cx="246" cy="246" r="246" gradientUnits="userSpaceOnUse"><stop offset="0" stop-color="#f2f2f2"/><stop offset="0.45" stop-color="#f0f0f0"/><stop offset="0.68" stop-color="#e8e8e8"/><stop offset="0.87" stop-color="#dadada"/><stop offset="1" stop-color="#ccc"/></radialGradient></defs><g id="Layer_2" data-name="Layer 2"><g id="Layer_1-2" data-name="Layer 1"><circle class="cls-1" cx="246" cy="246" r="246"/><path class="cls-2" d="M164.25,244l-43.93,22v53.92l102.27-49.37,29.51,13a4.26,4.26,0,0,1,.16,7.72L165.1,334.16a2.45,2.45,0,0,0,.07,4.42l77.61,35.15a14.82,14.82,0,0,0,12.57-.14L385,311.3a10.63,10.63,0,0,0-.09-19.21L282.5,244l103.34-52a8.48,8.48,0,0,0-.2-15.23L255.11,115.31a22.59,22.59,0,0,0-19.53.13l-73.93,36a1.81,1.81,0,0,0,0,3.27l99.15,45-38.63,18.94L120.32,172.91v52.23Z"/></g></g></svg>