<svg xmlns="http://www.w3.org/2000/svg" xmlns:xlink="http://www.w3.org/1999/xlink" viewBox="0 0 492 492"><defs><style>.cls-1{fill:url(#radial-gradient);}.cls-2{fill:#fff;}.cls-3{fill:#4c205b;}</style><radialGradient id="radial-gradient" cx="246" cy="246" r="246" gradientUnits="userSpaceOnUse"><stop offset="0" stop-color="#803588"/><stop offset="0" stop-color="#86498d"/><stop offset="0" stop-color="#8b5a91"/><stop offset="0.01" stop-color="#8d6093"/><stop offset="1" stop-color="#803588"/></radialGradient></defs><g id="Layer_2" data-name="Layer 2"><g id="Layer_1-2" data-name="Layer 1"><circle class="cls-1" cx="246" cy="246" r="246"/><path class="cls-2" d="M363.22,258.64c-6.59-27.71-42.21-51.45-51.45-54.09,18.47-39.58,1.32-69.92-10.55-83.11-15-16.63-51.45-26.39-67.28-23.75-29,8.8-63.33,20.22-92.35,29-.61.15-8.44,3.08-14.51,13.19-3.74,6.22-1.88,16.5-1.4,18.25,0,.11.07.18.08.22,19.79,69.49,42.21,142.92,62,212.4,0,.66,4.08,14.67,9.24,18.47a25,25,0,0,0,5.34,2.61c5.79,2.19,14,4.07,17.08,2.67,29-8.8,66-18.91,95-27.71C361.9,343.07,373.67,302.53,363.22,258.64ZM310.61,349c-1.17.6-2.37,1.14-3.59,1.65l-2.49.75-.07,0Q262.22,364.28,220,377.08a13.18,13.18,0,0,1-13.19-1.32,13.7,13.7,0,0,1-5.28-10.56Q171.8,261,142.12,156.76a12,12,0,0,1-.9-3.72,11.46,11.46,0,0,1,.9-5.51,12.14,12.14,0,0,1,7.91-6.6l87.07-26.38c23.47-3.14,46.37,7.31,58,26.38,14,22.85,9.46,54.18-11.87,73.88A70.73,70.73,0,0,1,310.61,349Z"/><path class="cls-3" d="M310.61,349a70.67,70.67,0,0,0-48.44-118.4C283.5,211,288,179.61,274,156.76c-11.67-19.07-34.58-29.52-58.05-26.38L141.22,153a11.46,11.46,0,0,1,.9-5.51,12.14,12.14,0,0,1,7.91-6.6l87.07-26.38c23.47-3.14,46.37,7.31,58,26.38,14,22.85,9.46,54.18-11.87,73.88A70.73,70.73,0,0,1,310.61,349Z"/></g></g></svg>