<svg xmlns="http://www.w3.org/2000/svg" xmlns:xlink="http://www.w3.org/1999/xlink" viewBox="0 0 492 492"><defs><style>.cls-1{fill:url(#radial-gradient);}.cls-2{fill:#f2b20c;}</style><radialGradient id="radial-gradient" cx="246" cy="246" r="246" gradientUnits="userSpaceOnUse"><stop offset="0" stop-color="#d00007"/><stop offset="0.3" stop-color="#d1020a"/><stop offset="0.49" stop-color="#d20a12"/><stop offset="0.65" stop-color="#d51721"/><stop offset="0.8" stop-color="#d92a36"/><stop offset="0.93" stop-color="#df4151"/><stop offset="0.99" stop-color="#e25061"/></radialGradient></defs><g id="Layer_2" data-name="Layer 2"><g id="Layer_1-2" data-name="Layer 1"><circle class="cls-1" cx="246" cy="246" r="246"/><path class="cls-2" d="M99.57,369.6a411.25,411.25,0,0,1,9.78-123.19c4.92-20.92,30.89-131.14,71.37-132,32.06-.67,57.92,67.58,64.53,86,4-11,32-87.18,66.48-86,37.2,1.24,60.39,91.78,68.44,123.19a416,416,0,0,1,11.73,133H354.75a547.8,547.8,0,0,0-5.87-134.92c-4.22-25-17.42-103.19-37.15-103.64-21.69-.49-39.48,93.32-41.06,101.68A431.28,431.28,0,0,0,264.8,351H227.65a549.37,549.37,0,0,0-7.82-115.37C216,213.49,201.69,132.06,182.68,132c-16.49,0-29.19,61.06-35.2,89.95a591.2,591.2,0,0,0-11.73,148.61Z"/></g></g></svg>