<svg xmlns="http://www.w3.org/2000/svg" xmlns:xlink="http://www.w3.org/1999/xlink" viewBox="0 0 492 492"><defs><style>.cls-1{fill:url(#radial-gradient);}.cls-2{fill:#ef0028;}.cls-3{fill:#ef1a38;}.cls-4{fill:#005a96;}.cls-5{fill:#fff;}</style><radialGradient id="radial-gradient" cx="246" cy="246" r="246" gradientUnits="userSpaceOnUse"><stop offset="0.01" stop-color="#0152ab"/><stop offset="0.18" stop-color="#0158af"/><stop offset="0.41" stop-color="#0167ba"/><stop offset="0.66" stop-color="#0081cc"/><stop offset="0.93" stop-color="#00a5e6"/><stop offset="1" stop-color="#00b0ed"/></radialGradient></defs><g id="Layer_2" data-name="Layer 2"><g id="Layer_1-2" data-name="Layer 1"><circle class="cls-1" cx="246" cy="246" r="246"/><path class="cls-2" d="M336,132.94c-12.51,37.39-35.14,82.67-76.31,123.17-41.51,40.83-88.15,63.3-130.12,75.45A144.5,144.5,0,0,1,336,132.94Z"/><path class="cls-2" d="M390.51,246A144.5,144.5,0,0,1,132,334.79a364.36,364.36,0,0,1,78.91-18c31.19-3.47,77.48-4.35,118.94-36.87,5.24-4.11,24.93-19.56,35.68-40.44,9-17.39,11.52-38.18,8.38-60.74A143.59,143.59,0,0,1,390.51,246Z"/><path class="cls-3" d="M336,132.94c-12.51,37.39-35.14,82.67-76.31,123.17-41.51,40.83-88.15,63.3-130.12,75.45A144.5,144.5,0,0,1,336,132.94Z"/><path class="cls-4" d="M390.51,246A144.5,144.5,0,0,1,132,334.79a364.36,364.36,0,0,1,78.91-18c31.19-3.47,77.48-4.35,118.94-36.87,5.24-4.11,24.93-19.56,35.68-40.44,9-17.39,11.52-38.18,8.38-60.74A143.59,143.59,0,0,1,390.51,246Z"/><path class="cls-5" d="M364.93,143.5a158.74,158.74,0,0,0-25-23.29A157,157,0,0,0,116.67,335c1,1.42,2,2.83,3,4.22A157,157,0,1,0,364.93,143.5ZM101.49,246A144.5,144.5,0,0,1,336,132.94c-12.51,37.39-35.14,82.67-76.31,123.17-41.51,40.83-88.15,63.3-130.12,75.45A143.72,143.72,0,0,1,101.49,246ZM246,390.51a144.18,144.18,0,0,1-114-55.72,364.36,364.36,0,0,1,78.91-18c31.19-3.47,77.48-4.35,118.94-36.87,5.24-4.11,24.93-19.56,35.68-40.44,9-17.39,11.52-38.18,8.38-60.74A144.54,144.54,0,0,1,246,390.51Z"/></g></g></svg>