<svg xmlns="http://www.w3.org/2000/svg" xmlns:xlink="http://www.w3.org/1999/xlink" viewBox="0 0 492 492"><defs><style>.cls-1{fill:url(#radial-gradient);}.cls-2{fill:#fff;}</style><radialGradient id="radial-gradient" cx="246" cy="246" r="246" gradientUnits="userSpaceOnUse"><stop offset="0" stop-color="#9b73c9"/><stop offset="0.44" stop-color="#8052b5"/><stop offset="1" stop-color="#5a2397"/></radialGradient></defs><g id="Layer_2" data-name="Layer 2"><g id="Layer_1-2" data-name="Layer 1"><circle class="cls-1" cx="246" cy="246" r="246"/><path class="cls-2" d="M335.19,179.46H305.1L236.61,100a25.09,25.09,0,0,0-26-7.71L189,98.58a7.1,7.1,0,0,0-2.9,12l72.67,68.92h-112a7.1,7.1,0,0,0-7.1,7l-.17,9.39a18.09,18.09,0,0,0,18.08,18.4h16s-1.25,90.07,6.65,104.29S211.87,347,235.57,347s36.35-6.32,36.35-6.32l.09,39.51A20.59,20.59,0,0,0,292.6,400.7h17.75a7.33,7.33,0,0,0,7.33-7.4l-1.52-179.07,29.92.19a6.38,6.38,0,0,0,6.43-6.38V196.78A17.31,17.31,0,0,0,335.19,179.46ZM272.71,300.35a49.6,49.6,0,0,1-26.87,6.32c-5.69-.36-12.86-.82-19-6.32s-7.43-12.47-7.86-15.48a4.78,4.78,0,0,1,0-.66V213.44h53.73Z"/></g></g></svg>