<svg xmlns="http://www.w3.org/2000/svg" xmlns:xlink="http://www.w3.org/1999/xlink" viewBox="0 0 492 492"><defs><style>.cls-1{fill:url(#radial-gradient);}.cls-2{fill:#fff;}</style><radialGradient id="radial-gradient" cx="246" cy="246" r="246" gradientUnits="userSpaceOnUse"><stop offset="0" stop-color="#0071bc"/><stop offset="0.53" stop-color="#1a4da4"/><stop offset="1" stop-color="#2e3192"/></radialGradient></defs><g id="Layer_2" data-name="Layer 2"><g id="Layer_1-2" data-name="Layer 1"><circle class="cls-1" cx="246" cy="246" r="246"/><path class="cls-2" d="M175.45,288.74c65.62,70,97.81,76.07,115.39,80.48,21.74,5.46,34.35,4,42.67,1.94,37-9,55.54-44.76,60.12-54.3-23.92-9.7-46.87-37.82-70.79-47.52-9.57,21.8-19.39,38.79-33,40.73-10.2,1.46-36.84-11.63-64-44.6-33.58-40.79-42.66-48.49-42.66-62.07,0-13.88,13.59-26.7,25.21-29.09l-48.49-67.88c-9.59,7.43-52.87,34.65-50.42,81.46C110.77,211.94,136.87,247.56,175.45,288.74Z"/></g></g></svg>