<svg xmlns="http://www.w3.org/2000/svg" xmlns:xlink="http://www.w3.org/1999/xlink" viewBox="0 0 492 492"><defs><style>.cls-1{fill:url(#radial-gradient);}.cls-2{fill:#fff;stroke:#000;stroke-miterlimit:10;stroke-width:10px;}</style><radialGradient id="radial-gradient" cx="246" cy="246" r="246" gradientUnits="userSpaceOnUse"><stop offset="0" stop-color="#fffc01"/><stop offset="0.12" stop-color="#fffc0a"/><stop offset="0.32" stop-color="#fffb24"/><stop offset="0.57" stop-color="#fff94e"/><stop offset="0.86" stop-color="#fff787"/><stop offset="1" stop-color="#fff6a4"/></radialGradient></defs><g id="Layer_2" data-name="Layer 2"><g id="Layer_1-2" data-name="Layer 1"><circle class="cls-1" cx="246" cy="246" r="246"/><path class="cls-2" d="M199.05,114c37.3-24.84,90-14.79,115.2,18.94,22.5,30.08,14.06,66.77,12.62,72.59,11.94-7.9,25.82-7.27,33.14,0,5.56,5.53,7.24,14.78,4.74,22.09-5.35,15.64-26.55,13-30.78,26-5,15.29,18.63,36.23,22.1,39.46,18.16,16.89,35.8,16.91,36.29,26.82.38,7.55-9.44,15.73-17.36,18.94-9,3.64-14,.24-18.93,4.73-6.21,5.63-1,14.69-6.32,20.52-5.52,6-17,3.26-22.88,2.37-32.44-4.93-41.87,24.14-75.75,25.25-36,1.17-69.43-31.57-80.48-26.83-8.69,3.73-24.37,4.85-31.56-3.16-3.83-4.26-1.85-7.86-4.74-14.2-7.82-17.2-34.71-3.16-34.71-23.67,0-7.76,18.22-11.55,38.66-32.35,9.25-9.42,23.11-23.53,19.73-35.51-3.7-13.07-24.37-11-30-26.83-2.89-8.16-1.38-19.93,6.31-25.25s20.77-3.4,30,6.32C154.72,172.9,168.94,134.06,199.05,114Z"/></g></g></svg>