<svg xmlns="http://www.w3.org/2000/svg" xmlns:xlink="http://www.w3.org/1999/xlink" viewBox="0 0 492 492"><defs><style>.cls-1{fill:url(#radial-gradient);}.cls-2{fill:#fff;}</style><radialGradient id="radial-gradient" cx="246" cy="246" r="246" gradientUnits="userSpaceOnUse"><stop offset="0" stop-color="#e22b22"/><stop offset="0.34" stop-color="#ea3832"/><stop offset="1" stop-color="#ff5a5a"/></radialGradient></defs><g id="Layer_2" data-name="Layer 2"><g id="Layer_1-2" data-name="Layer 1"><circle class="cls-1" cx="246" cy="246" r="246"/><path class="cls-2" d="M247.05,120.5q29.52,21.08,59.9,42.21Q338.68,184.79,370,206c-4.22,4.24-22.59,21.72-51.49,22.73-26.12.9-44.26-12.23-49.39-16.24L216.58,175.7,210.27,180,370,296.91a390.34,390.34,0,0,0-65.15,34.63A395.41,395.41,0,0,0,248.1,377L122,288.25c5.46-4.65,25.72-20.78,55.69-20.56A85.55,85.55,0,0,1,228.14,285l48.33,34.63,8.41-4.33L123.05,198.42a464.55,464.55,0,0,0,69.36-36.79A471.24,471.24,0,0,0,247.05,120.5Z"/></g></g></svg>