<svg xmlns="http://www.w3.org/2000/svg" xmlns:xlink="http://www.w3.org/1999/xlink" viewBox="0 0 492 492"><defs><style>.cls-1{fill:url(#radial-gradient);}.cls-2{fill:#fff;}</style><radialGradient id="radial-gradient" cx="246" cy="246" r="246" gradientUnits="userSpaceOnUse"><stop offset="0.01" stop-color="#76cbff"/><stop offset="0.28" stop-color="#4caae3"/><stop offset="0.6" stop-color="#2389c8"/><stop offset="0.85" stop-color="#0974b7"/><stop offset="1" stop-color="#006db1"/></radialGradient></defs><g id="Layer_2" data-name="Layer 2"><g id="Layer_1-2" data-name="Layer 1"><circle class="cls-1" cx="246" cy="246" r="246"/><path class="cls-2" d="M217.89,223.58c7,4.64-8.62,77-16,108.51-53.59-12.29-92.13-46.18-92.13-86.09a61.93,61.93,0,0,1,2.06-15.8c12-2.16,25.42-4.43,40.14-6.62C204.15,215.85,211.62,219.39,217.89,223.58Z"/><path class="cls-2" d="M328.7,207.75q-29.62-4.47-58-7.91c-3.45-.5-9.07-.71-13.18,2.64-5.38,4.38-5.28,12.58-5.28,15.82.11,13.9-.05,57.74,0,118.62-2,.05-4,.08-5.93.08-2.43,0-4.83-.05-7.23-.11.06-60.87-.13-104.69,0-118.59,0-3.24.1-11.44-5.28-15.82-4.09-3.35-9.71-3.14-13.19-2.64q-28.36,3.45-58,7.91-22.74,3.45-44.6,7.23c19-35,69.32-60,128.35-60s109.54,25.11,128.48,60.22Q352.22,211.31,328.7,207.75Z"/><path class="cls-2" d="M382.75,246c0,40.2-39.12,74.33-93.37,86.36C282,301,266.32,228.25,273.31,223.58c6.28-4.19,13.77-7.73,65.94,0,15.28,2.27,29.2,4.62,41.5,6.86A61.82,61.82,0,0,1,382.75,246Z"/></g></g></svg>