<svg xmlns="http://www.w3.org/2000/svg" xmlns:xlink="http://www.w3.org/1999/xlink" viewBox="0 0 492 492"><defs><style>.cls-1{fill:url(#radial-gradient);}.cls-2{fill:#00edff;}.cls-3{fill:#fff;}.cls-4{fill:#f12a51;}</style><radialGradient id="radial-gradient" cx="246" cy="246" r="246" gradientUnits="userSpaceOnUse"><stop offset="0" stop-color="#1a1a1a"/><stop offset="0.45" stop-color="#171717"/><stop offset="0.75" stop-color="#0e0e0e"/><stop offset="1"/></radialGradient></defs><g id="Layer_2" data-name="Layer 2"><g id="Layer_1-2" data-name="Layer 1"><circle class="cls-1" cx="246" cy="246" r="246"/><path class="cls-2" d="M215.57,201v13.39c-46.64,3.42-84.94,41.77-86.63,88.91a90.86,90.86,0,0,0,25.41,66c-25.23-17.13-42.44-46.32-41.26-79.53C115,237.44,162.05,195.9,215.57,201Z"/><path class="cls-2" d="M296.36,109q-17.7-.81-35.34-1.55,1.1,92.24,2.28,184.46c2.82,31.2-21.27,55.52-45.55,54.65-12.57-.45-25-7.6-32.84-18.12a40,40,0,0,0,17,4.64c24.28.87,48.37-23.45,45.55-54.65Q246.28,186.2,245.17,94q26.16,1.17,52.38,2.28A54.87,54.87,0,0,0,296.36,109Z"/><path class="cls-2" d="M363.59,162.29V176.5a54.2,54.2,0,0,1-13.76-3,57.7,57.7,0,0,1-25-17.76A52.21,52.21,0,0,0,334,160,57.9,57.9,0,0,0,363.59,162.29Z"/><path class="cls-3" d="M363.59,176.5v35.89a102.34,102.34,0,0,1-68.32-18.22v96c0,27.52-10.94,54.35-31.55,72.58-15.43,13.64-34.76,21.94-55,22.69a90.43,90.43,0,0,1-54.38-16.12,90.86,90.86,0,0,1-25.41-66c1.69-47.14,40-85.49,86.63-88.91V251.1c-27.33-5.83-52.29,13.07-54.66,36.44-1.73,17.3,9.34,33.29,24,40.9h0c7.84,10.52,20.27,17.67,32.84,18.12,24.28.87,48.37-23.45,45.55-54.65q-1.17-92.24-2.28-184.46,17.63.76,35.34,1.55a54.21,54.21,0,0,0,1.19,10c3.37,15.49,13.75,28.88,27.28,36.71a57.7,57.7,0,0,0,25,17.76A54.2,54.2,0,0,0,363.59,176.5Z"/><path class="cls-4" d="M231.41,214.48v50.1c-27.32-5.83-52.32,13.07-54.65,36.44-1,10.06,2.33,19.63,8.11,27.42-14.62-7.61-25.69-23.6-24-40.9,2.37-23.37,27.33-42.27,54.66-36.44V214.39A88.31,88.31,0,0,1,231.41,214.48Z"/><path class="cls-4" d="M324.83,155.73c-13.53-7.83-23.91-21.22-27.28-36.71a54.21,54.21,0,0,1-1.19-10c5.65.23,11.34.46,17,.73a53.68,53.68,0,0,0,11.43,46Z"/><path class="cls-4" d="M379.43,175.77v50.1a103.13,103.13,0,0,1-41-4.55,101.74,101.74,0,0,1-27.32-13.67v96c0,27.54-10.94,54.38-31.57,72.63-15.42,13.64-34.75,21.94-55,22.69-26.64,1-52.28-10.52-70.23-29.6a90.43,90.43,0,0,0,54.38,16.12c40.45-1.5,77.34-33.2,86.54-77.43V194.17a102.34,102.34,0,0,0,68.32,18.22V176.5A58.72,58.72,0,0,0,379.43,175.77Z"/></g></g></svg>