<svg xmlns="http://www.w3.org/2000/svg" xmlns:xlink="http://www.w3.org/1999/xlink" viewBox="0 0 492 492"><defs><style>.cls-1{fill:url(#radial-gradient);}.cls-2{fill:#fff;}</style><radialGradient id="radial-gradient" cx="246" cy="246" r="246" gradientUnits="userSpaceOnUse"><stop offset="0" stop-color="#1c98e5"/><stop offset="0.29" stop-color="#1f99e5"/><stop offset="0.47" stop-color="#279ee7"/><stop offset="0.62" stop-color="#36a6ea"/><stop offset="0.75" stop-color="#4ab1ed"/><stop offset="0.87" stop-color="#64c0f2"/><stop offset="0.98" stop-color="#85d1f8"/><stop offset="1" stop-color="#8ad4f9"/></radialGradient></defs><g id="Layer_2" data-name="Layer 2"><g id="Layer_1-2" data-name="Layer 1"><circle class="cls-1" cx="246" cy="246" r="246"/><path class="cls-2" d="M311.68,315.21c-43,42.65-101.9,56.36-151.74,48.6A175.59,175.59,0,0,1,92.5,338a114.19,114.19,0,0,0,92.23-26.77c-3.41.37-22.94,2.2-39.67-11.91a53.14,53.14,0,0,1-17.85-31.73,30.82,30.82,0,0,0,21.82,0,68.56,68.56,0,0,1-45.62-59.51,41.21,41.21,0,0,0,25.78,4c-3.91-3.18-23.4-19.66-25.78-47.6a68.26,68.26,0,0,1,7.93-37.69,175.17,175.17,0,0,0,49.59,43.64,176,176,0,0,0,79.34,23.8c-5.21-34.75,14.68-66.68,43.64-75.37,21.64-6.5,46.12.65,63.47,17.85a54.33,54.33,0,0,0,37.69-13.89,41.54,41.54,0,0,1-7.94,21.82,41,41,0,0,1-13.88,11.9,148.62,148.62,0,0,0,17.85-4c4.28-1.23,8.25-2.58,11.9-4a68.75,68.75,0,0,1-29.75,31.73C363.82,191.4,366.22,261.09,311.68,315.21Z"/></g></g></svg>