<svg xmlns="http://www.w3.org/2000/svg" xmlns:xlink="http://www.w3.org/1999/xlink" viewBox="0 0 492 492"><defs><style>.cls-1{fill:url(#radial-gradient);}.cls-2{fill:#fff;}</style><radialGradient id="radial-gradient" cx="246" cy="246" r="246" gradientUnits="userSpaceOnUse"><stop offset="0" stop-color="#1c98e5"/><stop offset="0.03" stop-color="#1b93df"/><stop offset="0.26" stop-color="#126baf"/><stop offset="0.48" stop-color="#0c4c8a"/><stop offset="0.68" stop-color="#07366f"/><stop offset="0.86" stop-color="#04295f"/><stop offset="1" stop-color="#032459"/></radialGradient></defs><g id="Layer_2" data-name="Layer 2"><g id="Layer_1-2" data-name="Layer 1"><circle class="cls-1" cx="246" cy="246" r="246"/><path class="cls-2" d="M435.66,155.72c-.7-1.5-1.43-3-2.19-4.46a207.34,207.34,0,0,0-15.69-26.11c-.86-1.22-1.72-2.41-2.61-3.6a210.24,210.24,0,0,0-238.4-73.86,206.91,206.91,0,0,0-27.26,11.74A209.86,209.86,0,0,0,36,250.27c2.25,112.8,94.64,204.4,207.45,205.72C360.63,457.35,456,362.82,456,246A209.06,209.06,0,0,0,435.66,155.72ZM246,52.58a192.44,192.44,0,0,1,65.78,11.49L247.83,210.85,183.42,63A192.82,192.82,0,0,1,246,52.58Zm-89.84,22.1L227,237.16h41.8L338.82,76.28a194.29,194.29,0,0,1,67.91,62.13L306.5,339.22l-39.9-91.61-39.48-1.43-42.46,97.44L83.55,141A194.42,194.42,0,0,1,156.16,74.68ZM244,439.41C137.78,438.31,51.67,350.47,52.59,244.3a192.81,192.81,0,0,1,14-70.78L169.21,379.07l12,24a5.54,5.54,0,0,0,10-.26l10.71-24.6,44.59-102.37,42.71,98,10.13,23.27a6.22,6.22,0,0,0,11.26.3L322,374.7l101.84-204,.22-.45c.69,1.62,1.35,3.23,2,4.87A192.54,192.54,0,0,1,439.42,246C439.42,353.5,351.7,440.53,244,439.41Z"/></g></g></svg>