<svg xmlns="http://www.w3.org/2000/svg" xmlns:xlink="http://www.w3.org/1999/xlink" viewBox="0 0 492 492"><defs><style>.cls-1{fill:url(#radial-gradient);}.cls-2{fill:#fff;}.cls-3{fill:#0cc041;}.cls-4{fill:#fcfcfc;}</style><radialGradient id="radial-gradient" cx="246" cy="246" r="246" gradientUnits="userSpaceOnUse"><stop offset="0" stop-color="#d5ffbf"/><stop offset="0.18" stop-color="#d2fdbc"/><stop offset="0.34" stop-color="#c7f8b4"/><stop offset="0.49" stop-color="#b5f0a7"/><stop offset="0.64" stop-color="#9ce494"/><stop offset="0.78" stop-color="#7bd47c"/><stop offset="0.91" stop-color="#54c25e"/><stop offset="0.99" stop-color="#39b54a"/></radialGradient></defs><g id="Layer_2" data-name="Layer 2"><g id="Layer_1-2" data-name="Layer 1"><circle class="cls-1" cx="246" cy="246" r="246"/><path class="cls-2" d="M401,245.5A155.54,155.54,0,0,1,165.13,378.65l-67,10.56,3-86a155.52,155.52,0,1,1,300-57.7Z"/><path class="cls-3" d="M379,245.5A133.53,133.53,0,0,1,176.5,359.81l-57.56,9.07L121.49,295A133.52,133.52,0,1,1,379,245.5Z"/><path class="cls-4" d="M206.5,270.5c33.83,36.11,50.43,39.23,59.5,41.5,11.21,2.81,17.71,2,22,1,19.1-4.64,28.64-23.08,31-28-12.33-5-24.17-19.5-36.5-24.5-4.94,11.24-10,20-17,21-5.26.75-19-6-33-23-17.32-21-22-25-22-32,0-7.16,7-13.77,13-15l-25-35c-4.95,3.83-27.26,17.86-26,42C173.15,230.9,186.61,249.27,206.5,270.5Z"/></g></g></svg>