<svg xmlns="http://www.w3.org/2000/svg" xmlns:xlink="http://www.w3.org/1999/xlink" viewBox="0 0 492 492"><defs><style>.cls-1{fill:url(#radial-gradient);}.cls-2{fill:red;}.cls-3{fill:#fcfcfc;}</style><radialGradient id="radial-gradient" cx="246" cy="246" r="246" gradientUnits="userSpaceOnUse"><stop offset="0" stop-color="#f2f2f2"/><stop offset="0.83" stop-color="#e9e9e9"/><stop offset="1" stop-color="#e6e6e6"/></radialGradient></defs><g id="Layer_2" data-name="Layer 2"><g id="Layer_1-2" data-name="Layer 1"><circle class="cls-1" cx="246" cy="246" r="246"/><path class="cls-2" d="M248.31,124c128.2-.48,148.26,5,163.34,20.51,19.28,19.78,20.28,46.6,22.28,100.25,2,54.63,3,81.94-14.85,102.53-12.08,13.89-31.82,24.35-173.25,25.06C107,373.08,87.42,363.2,75.06,349.6c-19.15-21.1-18.54-49-17.32-104.81,1.15-52.37,1.72-78.55,19.8-98C92.42,130.83,113.12,124.54,248.31,124Z"/><polygon class="cls-3" points="205.34 303.65 202.95 187.09 305.08 243.3 205.34 303.65"/></g></g></svg>